# xmcd
#
# Track frame offsets: 
#        150
#        14346
#        30984
#        47705
#        66715
#        78566
#        92939
#        103410
#        121593
#        136103
#        151741
#        173439
#        194875
#
# Disc length: 2797 seconds
#
# Revision: 0
# Processed by: cddbd v1.5.2PL0 Copyright (c) Steve Scherf et al.
# Submitted via: ExactAudioCopy v0.99pb4
#
DISCID=aa0aeb0d
DTITLE=Leo Koster Band - Heading For The Promise Land
DYEAR=2008
DGENRE=Country
TTITLE0=My 911
TTITLE1=Is Anybody Going to San Antone
TTITLE2=Jump Sturdy
TTITLE3=The Postman Doesn't Always Ring Twice
TTITLE4=The Promise Land
TTITLE5=Two-tone Blue
TTITLE6=8:05
TTITLE7=Pray For Rain
TTITLE8=Mr Spaceman
TTITLE9=Going Cowboy
TTITLE10=Isolation
TTITLE11=Shopping Mall
TTITLE12=My 911 (car Version)
EXTD=
EXTT0=
EXTT1=
EXTT2=
EXTT3=
EXTT4=
EXTT5=
EXTT6=
EXTT7=
EXTT8=
EXTT9=
EXTT10=
EXTT11=
EXTT12=
PLAYORDER=
